# xmcd CD database file generated by OrangeCD 5.2
#
# Track frame offsets:
#	150
#	9757
#	18822
#	57705
#	68380
#	76484
#	88598
#	99457
#	112807
#	129948
#	155598
#	169400
#	181512
#	194101
#	206276
#	224670
#	236525
#	279335
#	292060
#	305974
#
# Disc length: 4132 seconds
#
# Revision: 0
# Processed by: cddbd v1.5.1PL0 Copyright (c) Steve Scherf et al.
# Submitted via: OrangeCD 5.2
#
DISCID=14102214
DTITLE=Johnny Cash - The ABC Show Series Volume 2
DYEAR=2000
DGENRE=Country
TTITLE0=Wreck Of The Old '97
TTITLE1=Johnny Cash and Melanie - Silver Threads And Golden Needles
TTITLE2=Ride This Train: The Big Battle/Remember The Alamo/The Strangest Dream
TTITLE3=Johnny Cash and O.C. Smith - Hickory Hollers Tramp
TTITLE4=So Doggone Lonesome
TTITLE5=Seasons Of My Heart
TTITLE6=Johnny Cash and June Carter Cash - Pack Up Your Sorrows
TTITLE7=The Old Account
TTITLE8=Johnny Cash and Roy Orbison - Oh, Pretty Woman
TTITLE9=Ride This Train: From Sea To Shining Sea/This Land Is You Land
TTITLE10=Johnny Cash and Phil Harris - That's What I Like About The South
TTITLE11=Folsom Prison Blues
TTITLE12=Cisco Clifton's Fillin' Station
TTITLE13=Johnny Cash and June Carter Cash - Jackson
TTITLE14=Battle Hymn Of The Republic
TTITLE15=Understand Your Man/Sugar Time
TTITLE16=Ride This Train: The Talking Leaves/Trail Of Tears/As Long As The Gras
TTITLE16=s Shall Grow
TTITLE17=Johnny Cash and Rod McKuen - Train Poems
TTITLE18=Johnny Cash and Rod McKuen - Doesn't Anybody Know My Name
TTITLE19=Johnny Cash and Statler Brothers - This Ole House
EXTD=
EXTT0=
EXTT1=
EXTT2=
EXTT3=
EXTT4=
EXTT5=
EXTT6=
EXTT7=
EXTT8=
EXTT9=
EXTT10=
EXTT11=
EXTT12=
EXTT13=
EXTT14=
EXTT15=
EXTT16=
EXTT17=
EXTT18=
EXTT19=
PLAYORDER=
